<svg width="28" height="28" viewBox="0 0 28 28" fill="none" xmlns="http://www.w3.org/2000/svg">
<path d="M14.0003 27.3334C6.63653 27.3334 0.666992 21.3639 0.666992 14.0001C0.666992 6.63628 6.63653 0.666748 14.0003 0.666748C21.3641 0.666748 27.3337 6.63628 27.3337 14.0001C27.3256 21.3605 21.3608 27.3253 14.0003 27.3334ZM3.33366 14.2294C3.39675 20.0977 8.18847 24.8128 14.057 24.7814C19.9256 24.7497 24.6664 19.9834 24.6664 14.1147C24.6664 8.24609 19.9256 3.47978 14.057 3.44808C8.18847 3.41669 3.39675 8.13176 3.33366 14.0001V14.2294ZM20.667 15.3334H7.33366V12.6667H20.667V15.3334Z" fill="#13A3FD"/>
</svg>
